<?xml version="1.0" encoding="utf-8"?>
<svg width="120px" height="131px" viewBox="0 0 120 131" version="1.1" xmlns:xlink="http://www.w3.org/1999/xlink" xmlns="http://www.w3.org/2000/svg">
    <desc>Created with Lunacy</desc>
    <defs>
        <path d="M0 0L119.634 0L119.634 119.569L0 119.569L0 0Z" transform="translate(0.00020338983 0.023877965)" id="path_1" />
        <clipPath id="mask_1">
            <use xlink:href="#path_1" />
        </clipPath>
    </defs>
    <g id="Alert-Icon">
        <g id="Group-3" transform="translate(0 10.86499)">
            <path d="M0 0L119.634 0L119.634 119.569L0 119.569L0 0Z" transform="translate(0.00020338983 0.023877965)" id="Clip-2" fill="none" fill-rule="evenodd" stroke="none" />
            <g clip-path="url(#mask_1)">
                <path d="M13.0849 101.229C25.8342 86.8503 32.2092 66.9112 32.2092 41.4122C32.2092 38.9675 32.7844 36.4515 33.9348 33.8632C35.0852 31.2748 36.7383 28.8065 38.8955 26.4582C41.0522 24.1098 43.9639 22.1801 47.6306 20.6701C51.2974 19.1605 55.3595 18.406 59.8174 18.406C64.2748 18.406 68.337 19.1605 72.0033 20.6701C75.67 22.1801 78.5813 24.1098 80.738 26.4582C82.8956 28.8065 84.5492 31.2748 85.6995 33.8632C86.8499 36.4515 87.4247 38.9675 87.4247 41.4122C87.4247 66.9112 93.7993 86.8503 106.549 101.229L13.0849 101.229ZM113.092 94.9025C111.126 92.6982 109.089 89.834 106.981 86.3109C104.871 82.7882 103.086 78.9901 101.624 74.9154C100.162 70.8423 98.9642 65.9048 98.0294 60.1054C97.0946 54.3063 96.6277 48.0744 96.6277 41.4122C96.6277 34.1268 93.8237 27.3563 88.2159 21.1017C82.608 14.8466 75.2498 11.0481 66.144 9.70617C66.5268 8.79661 66.7188 7.86183 66.7188 6.90224C66.7188 4.98549 66.0472 3.35553 64.7056 2.01315C63.3637 0.672 61.7337 0 59.8174 0C57.8994 0 56.2694 0.672 54.9283 2.01315C53.5855 3.35553 52.9151 4.98549 52.9151 6.90224C52.9151 7.86183 53.1059 8.79661 53.4903 9.70617C44.3829 11.0481 37.0259 14.8466 31.418 21.1017C25.8098 27.3563 23.0066 34.1268 23.0066 41.4122C23.0066 48.0744 22.5393 54.3063 21.6045 60.1054C20.6697 65.9048 19.4713 70.8423 18.0094 74.9154C16.547 78.9901 14.762 82.7882 12.6533 86.3109C10.5433 89.834 8.50698 92.6982 6.54224 94.9025C4.57627 97.1081 2.39593 99.2164 0 101.229C0 103.722 0.909966 105.879 2.73153 107.7C4.55268 109.522 6.70942 110.432 9.20298 110.432L47.1515 110.432C49.2167 115.777 54.4011 119.569 60.4743 119.569C66.5475 119.569 71.7319 115.777 73.7971 110.432L110.432 110.432C112.924 110.432 115.08 109.522 116.902 107.7C118.724 105.879 119.634 103.722 119.634 101.229C117.237 99.2164 115.057 97.1081 113.092 94.9025L113.092 94.9025Z" transform="translate(0.00020338983 0.023877965)" id="Fill-1" fill="#E1E0E1" fill-rule="evenodd" stroke="none" />
            </g>
        </g>
        <path d="M18.0338 0.468203L17.2365 0L16.8736 0.850576L16.5816 1.53559C15.4214 4.2598 13.1146 5.95159 10.5616 5.95159C8.00868 5.95159 5.70224 4.2598 4.5421 1.536L4.25044 0.850983L3.888 0L3.09031 0.468203L0.617085 1.92L0 2.28244L0.280271 2.94061L0.571932 3.62522C2.46264 8.06644 6.29044 10.8252 10.5616 10.8252C14.8324 10.8252 18.6606 8.06644 20.5517 3.62522L20.8434 2.94102L21.1245 2.28244L20.507 1.92L18.0338 0.468203Z" transform="translate(62.032104 64.727295)" id="Fill-4" fill="#9B9B9B" fill-rule="evenodd" stroke="none" />
        <path d="M20.8438 2.94102L21.1245 2.28244L20.5074 1.92041L18.0338 0.468203L17.2365 0.00040678L16.8736 0.850576L16.5816 1.53559C15.4214 4.2598 13.115 5.952 10.562 5.952C8.00908 5.952 5.70264 4.2598 4.54251 1.536L4.25044 0.850983L3.888 0L3.09031 0.468203L0.617085 1.92041L0 2.28244L0.280271 2.94102L0.572339 3.62563C2.46264 8.06644 6.29085 10.8256 10.562 10.8256C14.8328 10.8256 18.6606 8.06644 20.5517 3.62522L20.8438 2.94102Z" transform="translate(36.97937 64.72717)" id="Fill-6" fill="#9B9B9B" fill-rule="evenodd" stroke="none" />
        <path d="M3.87336 0C1.7341 0 0 1.73451 0 3.87336C0 6.01261 1.7341 7.74671 3.87336 7.74671C6.0122 7.74671 7.7463 6.01261 7.7463 3.87336C7.7463 1.73451 6.0122 0 3.87336 0" transform="translate(56.60132 89.71094)" id="Fill-8" fill="#9B9B9B" fill-rule="evenodd" stroke="none" />
        <path d="M10.7443 0L0.159458 0L0.159458 2.73722L6.25017 2.73722L0 10.128L0 12.2717L10.9485 12.2717L10.9485 9.53491L4.4941 9.53491L10.7443 2.14414L10.7443 0Z" transform="translate(103.90808 31.05542)" id="Fill-10" fill="#9B9B9B" fill-rule="evenodd" stroke="none" />
        <path d="M0.00122034 20.7763L18.53 20.7685L18.528 16.1365L7.60475 16.1406L18.1774 3.62847L18.1761 0L0.263186 0.00732203L0.264814 4.63973L10.5722 4.63525L0 17.1478L0.00122034 20.7763Z" transform="translate(90.852295 0)" id="Fill-12" fill="#9B9B9B" fill-rule="evenodd" stroke="none" />
    </g>
</svg>